<svg version="1.1" viewBox="0.0 0.0 226.5538057742782 217.83989501312337" fill="none" stroke="none" stroke-linecap="square" stroke-miterlimit="10" xmlns:xlink="http://www.w3.org/1999/xlink" xmlns="http://www.w3.org/2000/svg"><clipPath id="p.0"><path d="m0 0l226.5538 0l0 217.83989l-226.5538 0l0 -217.83989z" clip-rule="nonzero"/></clipPath><g clip-path="url(#p.0)"><path fill="#000000" fill-opacity="0.0" d="m0 0l226.5538 0l0 217.83989l-226.5538 0z" fill-rule="evenodd"/><path fill="#f2503a" d="m17.682415 46.517075c0 -17.232788 13.969934 -31.202724 31.202724 -31.202724l132.17722 0c8.275482 0 16.21202 3.2874203 22.06366 9.139067c5.851654 5.8516464 9.139069 13.788179 9.139069 22.063658l0 124.807144c0 17.232788 -13.96994 31.202728 -31.202728 31.202728l-132.17722 0c-17.23279 0 -31.202724 -13.96994 -31.202724 -31.202728z" fill-rule="evenodd"/><path fill="#000000" fill-opacity="0.0" d="m411.61417 189.67192l474.80313 0l0 174.51967l-474.80313 0z" fill-rule="evenodd"/><path fill="#000000" d="m461.39075 260.7369q-5.8125 0 -10.03125 -2.296875q-4.21875 -2.296875 -6.515625 -6.5468597q-2.296875 -4.25 -2.296875 -10.125q0 -5.71875 1.8125 -10.90625q1.8125 -5.1875 5.171875 -9.234375q3.359375 -4.046875 8.0625 -6.375q4.703125 -2.328125 10.484375 -2.328125q3.875 0 7.15625 1.09375q3.28125 1.09375 5.6875 3.15625q2.40625 2.0625 3.71875 4.953125q1.3125 2.890625 1.1875 6.453125l-9.6875 0q-0.21875 -1.6875 -0.84375 -3.015625q-0.625 -1.328125 -1.671875 -2.265625q-1.046875 -0.9375 -2.484375 -1.421875q-1.4375 -0.484375 -3.3125 -0.484375q-3.75 0 -6.671875 1.75q-2.921875 1.75 -4.921875 4.671875q-2.0 2.921875 -3.046875 6.5q-1.046875 3.578125 -1.046875 7.234375q0 5.21875 2.5625 7.96875q2.5625 2.75 7.125 2.75q3.5 0 6.25 -1.296875q2.75 -1.296875 4.5 -3.625q1.75 -2.328125 2.25 -5.390625l1.875 0.59375l-12.09375 0l1.1875 -7.25l19.375 0l-1.0 6.125q-0.75 4.5625 -2.78125 8.140625q-2.03125 3.578125 -5.0625 6.078125q-3.03125 2.4999847 -6.84375 3.7968597q-3.8125 1.296875 -8.09375 1.296875zm42.90625 0.125q-4.65625 0 -8.03125 -1.703125q-3.375 -1.703125 -5.1875 -4.8906097q-1.8125 -3.1875 -1.8125 -7.65625q0 -4.40625 1.453125 -8.390625q1.453125 -3.984375 4.140625 -7.046875q2.6875 -3.0625 6.375 -4.828125q3.6875 -1.765625 8.125 -1.765625q3.6875 0 6.609375 1.234375q2.921875 1.234375 4.609375 3.5q1.6875 2.265625 1.6875 5.453125q0 3.25 -1.90625 5.359375q-1.90625 2.109375 -5.625 3.28125q-3.71875 1.171875 -9.15625 1.640625q-5.4375 0.46875 -12.5 0.46875l0.96875 -5.65625q5.96875 0 9.796875 -0.203125q3.828125 -0.203125 5.9375 -0.734375q2.109375 -0.53125 2.9375 -1.421875q0.828125 -0.890625 0.828125 -2.265625q0 -1.65625 -1.390625 -2.625q-1.390625 -0.96875 -3.765625 -0.96875q-3.0625 0 -5.03125 1.59375q-1.96875 1.59375 -3.0625 4.0q-1.09375 2.40625 -1.546875 4.984375q-0.453125 2.578125 -0.453125 4.546875q0 2.0 0.609375 3.59375q0.609375 1.59375 2.078125 2.515625q1.46875 0.921875 4.0 0.921875q2.65625 0 4.703125 -1.109375q2.046875 -1.109375 2.953125 -3.078125l8.40625 1.125q-1.71875 4.5625 -6.15625 7.3437347q-4.4375 2.78125 -10.59375 2.78125zm34.28125 -20.687485l-3.3125 19.937485l-9.375 0l5.8125 -34.937485l8.8125 0l-1.21875 8.71875l-0.65625 -0.3125q2.0625 -4.3125 5.125 -6.578125q3.0625 -2.265625 7.3125 -2.265625q3.75 0 6.3125 1.65625q2.5625 1.65625 3.625 4.6875q1.0625 3.03125 0.375 7.125l-3.625 21.906235l-9.375 0l3.46875 -20.906235q0.5625 -3.28125 -0.84375 -4.953125q-1.40625 -1.671875 -4.1875 -1.671875q-2.09375 0 -3.828125 0.9375q-1.734375 0.9375 -2.890625 2.640625q-1.15625 1.703125 -1.53125 4.015625zm24.6875 19.937485l23.625 -46.562485l12.5 0l8.59375 46.562485l-10.21875 0l-3.71875 -22.468735q-0.59375 -4.1875 -1.15625 -9.4375q-0.5625 -5.25 -1.0625 -11.375l2.0625 0q-2.4375 5.96875 -4.59375 11.21875q-2.15625 5.25 -4.1875 9.59375l-10.9375 22.468735l-10.90625 0zm11.71875 -10.812485l1.25 -7.46875l24.8125 0l-1.21875 7.46875l-24.84375 0zm56.0 -35.75l-7.71875 46.562485l-9.53125 0l7.71875 -46.562485l9.53125 0zm20.4375 7.90625l1.3125 -7.90625l38.03125 0l-1.3125 7.90625l-14.21875 0l-6.40625 38.656235l-9.5625 0l6.40625 -38.656235l-14.25 0zm45.65625 39.249985q-4.0 0 -6.890625 -2.09375q-2.890625 -2.09375 -4.109375 -6.1093597q-1.21875 -4.015625 -0.25 -9.828125q1.0 -5.96875 3.59375 -9.953125q2.59375 -3.984375 6.15625 -5.984375q3.5625 -2.0 7.4375 -2.0q2.96875 0 4.765625 0.984375q1.796875 0.984375 2.765625 2.453125q0.96875 1.46875 1.375 2.875l0.3125 0l0.96875 -5.875l9.34375 0l-5.78125 34.937485l-9.21875 0l0.90625 -5.5937347l-0.4375 0q-0.90625 1.4375 -2.375 2.8593597q-1.46875 1.421875 -3.59375 2.375q-2.125 0.953125 -4.96875 0.953125zm4.15625 -7.5312347q2.40625 0 4.296875 -1.328125q1.890625 -1.328125 3.171875 -3.6875q1.28125 -2.359375 1.78125 -5.484375q0.53125 -3.1875 0.046875 -5.53125q-0.484375 -2.34375 -1.953125 -3.625q-1.46875 -1.28125 -3.875 -1.28125q-2.46875 0 -4.375 1.34375q-1.90625 1.34375 -3.140625 3.6875q-1.234375 2.34375 -1.734375 5.40625q-0.5 3.0625 -0.03125 5.4375q0.46875 2.375 1.921875 3.71875q1.453125 1.34375 3.890625 1.34375zm37.75 7.6249847q-4.21875 0 -7.34375 -1.234375q-3.125 -1.234375 -4.859375 -3.484375q-1.734375 -2.2499847 -1.921875 -5.3437347q0 -0.15625 -0.015625 -0.265625q-0.015625 -0.109375 -0.015625 -0.203125l8.78125 -0.90625q0.25 2.4375 1.609375 3.5q1.359375 1.0625 4.203125 1.0625q1.71875 0 3.25 -0.46875q1.53125 -0.46875 2.546875 -1.359375q1.015625 -0.890625 1.140625 -2.171875q0.09375 -1.1875 -0.765625 -2.0q-0.859375 -0.8125 -2.953125 -1.25l-5.8125 -1.25q-4.5625 -0.96875 -6.75 -3.421875q-2.1875 -2.453125 -1.90625 -6.046875q0.21875 -3.625 2.4375 -6.125q2.21875 -2.5 5.765625 -3.796875q3.546875 -1.296875 7.734375 -1.296875q6.15625 0 9.515625 2.46875q3.359375 2.46875 3.796875 6.46875q0.0625 0.1875 0.09375 0.34375q0.03125 0.15625 0.03125 0.34375l-8.34375 0.84375q-0.25 -1.78125 -1.40625 -2.765625q-1.15625 -0.984375 -3.65625 -0.984375q-1.53125 0 -3.0 0.46875q-1.46875 0.46875 -2.46875 1.34375q-1.0 0.875 -1.125 2.1875q-0.125 1.1875 0.6875 1.96875q0.8125 0.78125 3.0 1.28125l6.0625 1.25q4.59375 0.9375 6.796875 3.21875q2.203125 2.28125 1.921875 5.8125q-0.1875 2.78125 -1.609375 4.96875q-1.421875 2.1874847 -3.796875 3.7187347q-2.375 1.53125 -5.359375 2.328125q-2.984375 0.796875 -6.265625 0.796875zm31.78125 -10.906235l1.875 -11.28125l1.4375 0l13.625 -13.4375l10.84375 0l-18.0 17.53125l-2.21875 0l-7.5625 7.1875zm-10.1875 10.218735l7.71875 -46.562485l9.375 0l-7.71875 46.562485l-9.375 0zm21.8125 0l-7.96875 -15.312485l7.40625 -6.65625l11.59375 21.968735l-11.03125 0zm30.03125 0.75q-4.65625 0 -8.03125 -1.703125q-3.375 -1.703125 -5.1875 -4.8906097q-1.8125 -3.1875 -1.8125 -7.65625q0 -4.40625 1.453125 -8.390625q1.453125 -3.984375 4.140625 -7.046875q2.6875 -3.0625 6.375 -4.828125q3.6875 -1.765625 8.125 -1.765625q3.6875 0 6.609375 1.234375q2.921875 1.234375 4.609375 3.5q1.6875 2.265625 1.6875 5.453125q0 3.25 -1.90625 5.359375q-1.90625 2.109375 -5.625 3.28125q-3.71875 1.171875 -9.15625 1.640625q-5.4375 0.46875 -12.5 0.46875l0.96875 -5.65625q5.96875 0 9.796875 -0.203125q3.828125 -0.203125 5.9375 -0.734375q2.109375 -0.53125 2.9375 -1.421875q0.828125 -0.890625 0.828125 -2.265625q0 -1.65625 -1.390625 -2.625q-1.390625 -0.96875 -3.765625 -0.96875q-3.0625 0 -5.03125 1.59375q-1.96875 1.59375 -3.0625 4.0q-1.09375 2.40625 -1.546875 4.984375q-0.453125 2.578125 -0.453125 4.546875q0 2.0 0.609375 3.59375q0.609375 1.59375 2.078125 2.515625q1.46875 0.921875 4.0 0.921875q2.65625 0 4.703125 -1.109375q2.046875 -1.109375 2.953125 -3.078125l8.40625 1.125q-1.71875 4.5625 -6.15625 7.3437347q-4.4375 2.78125 -10.59375 2.78125zm21.625 -0.75l5.78125 -34.937485l9.0625 0l-0.96875 6.09375l0.375 0q1.46875 -3.25 4.0 -4.90625q2.53125 -1.65625 5.46875 -1.65625q0.75 0 1.5625 0.078125q0.8125 0.078125 1.4375 0.234375l-1.40625 8.375q-0.625 -0.21875 -1.796875 -0.34375q-1.171875 -0.125 -2.171875 -0.125q-2.15625 0 -4.0 0.921875q-1.84375 0.921875 -3.078125 2.5625q-1.234375 1.640625 -1.609375 3.828125l-3.28125 19.874985l-9.375 0z" fill-rule="nonzero"/><path fill="#000000" d="m552.1564 336.91193l7.71875 -46.5625l18.15625 0q5.28125 0 8.671875 2.0q3.390625 2.0 4.765625 5.546875q1.375 3.546875 0.59375 8.140625q-0.71875 4.625 -3.296875 8.140625q-2.578125 3.515625 -6.6875 5.515625q-4.109375 2.0 -9.453125 2.0l-11.6875 0l1.28125 -7.6875l10.15625 0q2.9375 0 5.0 -1.03125q2.0625 -1.03125 3.28125 -2.828125q1.21875 -1.796875 1.59375 -4.078125q0.375 -2.34375 -0.25 -4.109375q-0.625 -1.765625 -2.359375 -2.75q-1.734375 -0.984375 -4.703125 -0.984375l-6.84375 0l-6.40625 38.6875l-9.53125 0zm58.34375 -46.5625l-7.71875 46.5625l-9.375 0l7.71875 -46.5625l9.375 0zm12.25 47.0q-3.625 0 -6.0625 -1.578125q-2.4375 -1.578125 -3.453125 -4.53125q-1.015625 -2.953125 -0.359375 -7.046875l3.6875 -22.21875l9.375 0l-3.40625 20.59375q-0.53125 3.25 0.828125 5.09375q1.359375 1.84375 4.359375 1.84375q1.96875 0 3.625 -0.859375q1.65625 -0.859375 2.8125 -2.484375q1.15625 -1.625 1.53125 -3.96875l3.34375 -20.21875l9.40625 0l-5.78125 34.9375l-8.875 0l1.3125 -8.71875l0.53125 0q-2.09375 4.40625 -5.296875 6.78125q-3.203125 2.375 -7.578125 2.375zm41.625 13.375q-4.5 0 -7.65625 -1.1875q-3.15625 -1.1875 -4.90625 -3.203125q-1.75 -2.015625 -2.09375 -4.484375l8.1875 -1.625q0.25 0.9375 0.96875 1.765625q0.71875 0.828125 2.0625 1.375q1.34375 0.546875 3.53125 0.546875q3.78125 0 6.265625 -1.8125q2.484375 -1.8125 3.109375 -5.25l1.0625 -6.125l-0.84375 0.0625q-0.90625 1.40625 -2.21875 2.703125q-1.3125 1.296875 -3.21875 2.109375q-1.90625 0.8125 -4.625 0.8125q-3.5 0 -6.265625 -1.453125q-2.765625 -1.453125 -4.34375 -4.375q-1.578125 -2.921875 -1.578125 -7.296875q0 -3.96875 1.125 -7.84375q1.125 -3.875 3.3125 -7.015625q2.1875 -3.140625 5.34375 -5.015625q3.15625 -1.875 7.1875 -1.875q2.3125 0 3.96875 0.625q1.65625 0.625 2.75 1.640625q1.09375 1.015625 1.734375 2.15625q0.640625 1.140625 0.953125 2.171875l0.4375 -0.0625l1.03125 -6.09375l9.25 0l-5.8125 34.9375q-0.8125 4.71875 -3.40625 7.78125q-2.59375 3.0625 -6.53125 4.546875q-3.9375 1.484375 -8.78125 1.484375zm2.71875 -21.4375q2.53125 0 4.421875 -1.21875q1.890625 -1.21875 3.125 -3.203125q1.234375 -1.984375 1.84375 -4.359375q0.609375 -2.375 0.609375 -4.6875q0 -3.15625 -1.40625 -4.96875q-1.40625 -1.8125 -4.25 -1.8125q-2.4375 0 -4.328125 1.25q-1.890625 1.25 -3.171875 3.28125q-1.28125 2.03125 -1.921875 4.4375q-0.640625 2.40625 -0.640625 4.75q0 3.09375 1.421875 4.8125q1.421875 1.71875 4.296875 1.71875zm24.0 7.625l5.78125 -34.9375l9.375 0l-5.78125 34.9375l-9.375 0zm11.21875 -39.5q-2.125 0 -3.390625 -1.40625q-1.265625 -1.40625 -0.953125 -3.40625q0.34375 -2.03125 2.09375 -3.421875q1.75 -1.390625 3.84375 -1.390625q2.15625 0 3.421875 1.40625q1.265625 1.40625 0.921875 3.40625q-0.3125 2.0 -2.0625 3.40625q-1.75 1.40625 -3.875 1.40625zm18.8125 19.5625l-3.3125 19.9375l-9.375 0l5.8125 -34.9375l8.8125 0l-1.21875 8.71875l-0.65625 -0.3125q2.0625 -4.3125 5.125 -6.578125q3.0625 -2.265625 7.3125 -2.265625q3.75 0 6.3125 1.65625q2.5625 1.65625 3.625 4.6875q1.0625 3.03125 0.375 7.125l-3.625 21.90625l-9.375 0l3.46875 -20.90625q0.5625 -3.28125 -0.84375 -4.953125q-1.40625 -1.671875 -4.1875 -1.671875q-2.09375 0 -3.828125 0.9375q-1.734375 0.9375 -2.890625 2.640625q-1.15625 1.703125 -1.53125 4.015625z" fill-rule="nonzero"/><path fill="#ffffff" d="m56.158627 80.38806c0 -21.23035 17.210598 -38.440945 38.440945 -38.440945l44.409447 0c10.195175 0 19.972778 4.0500145 27.181854 11.25909c7.209076 7.209076 11.259094 16.98668 11.259094 27.181854l0 0c0 21.230347 -17.210602 38.44094 -38.44095 38.44094l-44.409447 0c-21.230347 0 -38.440945 -17.210594 -38.440945 -38.44094z" fill-rule="evenodd"/><path fill="#f2503a" d="m87.616035 80.384094c0 -3.966011 3.3208466 -7.181099 7.4173203 -7.181099c1.9672012 0 3.8538208 0.75657654 5.2448425 2.1032944c1.3910141 1.3467178 2.1724854 3.1732635 2.1724854 5.0778046c0 3.9660187 -3.3208542 7.1811066 -7.417328 7.1811066c-4.0964737 0 -7.4173203 -3.215088 -7.4173203 -7.1811066z" fill-rule="evenodd"/><path fill="#f2503a" d="m131.50282 80.384094c0 -3.966011 3.3208466 -7.181099 7.417328 -7.181099c1.9671936 0 3.8538208 0.75657654 5.2448425 2.1032944c1.3910217 1.3467178 2.1724854 3.1732635 2.1724854 5.0778046c0 3.9660187 -3.3208466 7.1811066 -7.417328 7.1811066c-4.0964813 0 -7.417328 -3.215088 -7.417328 -7.1811066z" fill-rule="evenodd"/><path fill="#ffffff" d="m71.39088 125.09065l90.82638 0c4.0399017 0 7.914337 1.6048508 10.770996 4.461487c2.8566437 2.8566437 4.461487 6.7310944 4.461487 10.770996l0 38.720276c0 5.645752E-4 -4.5776367E-4 0.0010070801 -0.0010070801 0.0010070801l-121.29033 -0.0010070801c-5.607605E-4 0 -0.0010108948 -4.5776367E-4 -0.0010108948 -0.0010070801l0.0010108948 -38.71927c0 -8.412674 6.819813 -15.232483 15.232479 -15.232483z" fill-rule="evenodd"/></g></svg>